<?xml version="1.0" encoding="UTF-8" standalone="no"?>
<!-- Created with Inkscape (http://www.inkscape.org/) -->

<svg
   xmlns:dc="http://purl.org/dc/elements/1.1/"
   xmlns:cc="http://creativecommons.org/ns#"
   xmlns:rdf="http://www.w3.org/1999/02/22-rdf-syntax-ns#"
   xmlns:svg="http://www.w3.org/2000/svg"
   xmlns="http://www.w3.org/2000/svg"
   xmlns:sodipodi="http://sodipodi.sourceforge.net/DTD/sodipodi-0.dtd"
   xmlns:inkscape="http://www.inkscape.org/namespaces/inkscape"
   id="svg2"
   version="1.1"
   inkscape:version="0.91 r13725"
   width="112"
   height="16"
   viewBox="0 0 112 16"
   sodipodi:docname="loop-tabbar-icons.svg">
  <metadata
     id="metadata8">
    <rdf:RDF>
      <cc:Work
         rdf:about="">
        <dc:format>image/svg+xml</dc:format>
        <dc:type
           rdf:resource="http://purl.org/dc/dcmitype/StillImage" />
        <dc:title></dc:title>
      </cc:Work>
    </rdf:RDF>
  </metadata>
  <defs
     id="defs6" />
  <sodipodi:namedview
     pagecolor="#ffffff"
     bordercolor="#666666"
     borderopacity="1"
     objecttolerance="10"
     gridtolerance="10"
     guidetolerance="10"
     inkscape:pageopacity="0"
     inkscape:pageshadow="2"
     inkscape:window-width="640"
     inkscape:window-height="480"
     id="namedview4"
     showgrid="true"
     showguides="true"
     inkscape:guide-bbox="true"
     inkscape:snap-bbox="true"
     inkscape:bbox-paths="true"
     inkscape:bbox-nodes="true"
     inkscape:snap-bbox-edge-midpoints="true"
     inkscape:object-paths="true"
     inkscape:snap-intersection-paths="true"
     inkscape:object-nodes="true"
     inkscape:snap-global="true"
     inkscape:zoom="22.627417"
     inkscape:cx="1.6802334"
     inkscape:cy="6.0077774"
     inkscape:current-layer="layer2">
    <inkscape:grid
       type="xygrid"
       id="grid4138" />
    <sodipodi:guide
       position="16,9"
       orientation="1,0"
       id="guide4140" />
    <sodipodi:guide
       position="32,9"
       orientation="1,0"
       id="guide4142" />
    <sodipodi:guide
       position="48,9"
       orientation="1,0"
       id="guide4144" />
    <sodipodi:guide
       position="64,9"
       orientation="1,0"
       id="guide4146" />
    <sodipodi:guide
       position="80,9"
       orientation="1,0"
       id="guide4148" />
    <sodipodi:guide
       position="96,9"
       orientation="1,0"
       id="guide4150" />
  </sodipodi:namedview>
  <g
     inkscape:groupmode="layer"
     id="layer2"
     inkscape:label="Layer 2"
     style="display:inline"
     transform="translate(0,-2)">
    <path
       style="opacity:1;fill:#afb8c5;fill-opacity:1;stroke:none;stroke-width:1;stroke-linecap:butt;stroke-linejoin:miter;stroke-miterlimit:4;stroke-dasharray:none;stroke-dashoffset:0;stroke-opacity:1"
       d="m 8,4.00025 a 7,6 0 0 0 -7,6 7,6 0 0 0 1.9394531,4.140625 L 1.5,17.469 9.189453,15.912359 a 7,6 0 0 0 0.04102,-0.0078 A 7,6 0 0 0 15,10.00025 a 7,6 0 0 0 -7,-6 z m 2.449219,3 a 0.75,0.96875 0 0 1 0.75,0.96875 0.75,0.96875 0 0 1 -0.75,0.96875 0.75,0.96875 0 0 1 -0.75,-0.96875 0.75,0.96875 0 0 1 0.75,-0.96875 z M 5.4492188,7.0315 a 0.75,0.96875 0 0 1 0.75,0.96875 0.75,0.96875 0 0 1 -0.75,0.96875 0.75,0.96875 0 0 1 -0.75,-0.96875 0.75,0.96875 0 0 1 0.75,-0.96875 z M 4,11.00025 a 5.0321543,2.5593277 0 0 0 3.9746094,0.992188 5.0321543,2.5593277 0 0 0 3.9726566,-0.992188 3.9761278,3.0610538 0 0 1 -3.9726566,3 A 3.9761278,3.0610538 0 0 1 4,11.00025 Z"
       id="path4171"
       inkscape:connector-curvature="0" />
    <path
       style="display:inline;opacity:1;fill:#afb8c5;fill-opacity:1;stroke:none;stroke-width:1;stroke-linecap:butt;stroke-linejoin:miter;stroke-miterlimit:4;stroke-dasharray:none;stroke-dashoffset:0;stroke-opacity:1"
       d="m 24,4.00025 a 7,6 0 0 0 -7,6 7,6 0 0 0 1.939453,4.140625 L 17.5,17.469 25.189453,15.912359 a 7,6 0 0 0 0.04102,-0.0078 A 7,6 0 0 0 31,10.00025 a 7,6 0 0 0 -7,-6 z m 0,2 a 5,4 0 0 1 5,4 5,4 0 0 1 -5,4 5,4 0 0 1 -5,-4 5,4 0 0 1 5,-4 z"
       id="path4171-5"
       inkscape:connector-curvature="0" />
    <path
       style="display:inline;opacity:1;fill:#f46062;fill-opacity:1;stroke:none;stroke-width:1;stroke-linecap:butt;stroke-linejoin:miter;stroke-miterlimit:4;stroke-dasharray:none;stroke-dashoffset:0;stroke-opacity:1"
       d="m 40,4.00025 a 7,6 0 0 0 -7,6 7,6 0 0 0 1.939453,4.140625 L 33.5,17.469 41.189453,15.912359 a 7,6 0 0 0 0.04102,-0.0078 A 7,6 0 0 0 47,10.00025 a 7,6 0 0 0 -7,-6 z m -1,2 2,0 -0.300781,5 -1.398438,0 -0.300781,-5 z m 1,6 c 0.554,0 1,0.446 1,1 0,0.554 -0.446,1 -1,1 -0.554,0 -1,-0.446 -1,-1 0,-0.554 0.446,-1 1,-1 z"
       id="path4171-4-7"
       inkscape:connector-curvature="0" />
    <path
       style="display:inline;opacity:1;fill:#a0d058;fill-opacity:1;stroke:none;stroke-width:1;stroke-linecap:butt;stroke-linejoin:miter;stroke-miterlimit:4;stroke-dasharray:none;stroke-dashoffset:0;stroke-opacity:1"
       d="m 56,4.00025 a 7,6 0 0 0 -7,6 7,6 0 0 0 1.939453,4.140625 L 49.5,17.469 57.189453,15.912359 a 7,6 0 0 0 0.04102,-0.0078 A 7,6 0 0 0 63,10.00025 a 7,6 0 0 0 -7,-6 z m 2.449219,2.9999996 a 0.75,0.96875 0 0 1 0.75,0.96875 0.75,0.96875 0 0 1 -0.75,0.96875 0.75,0.96875 0 0 1 -0.75,-0.96875 0.75,0.96875 0 0 1 0.75,-0.96875 z m -5,0.03125 a 0.75,0.96875 0 0 1 0.75,0.96875 0.75,0.96875 0 0 1 -0.75,0.96875 0.75,0.96875 0 0 1 -0.75,-0.96875 0.75,0.96875 0 0 1 0.75,-0.96875 z M 52,11.00025 a 5.0321543,2.5593277 0 0 0 3.974609,0.992188 5.0321543,2.5593277 0 0 0 3.972657,-0.992188 3.9761278,3.0610538 0 0 1 -3.972657,3 3.9761278,3.0610538 0 0 1 -3.974609,-3 z"
       id="path4171-9"
       inkscape:connector-curvature="0" />
    <path
       style="display:inline;opacity:1;fill:#b5da7c;fill-opacity:1;stroke:none;stroke-width:1;stroke-linecap:butt;stroke-linejoin:miter;stroke-miterlimit:4;stroke-dasharray:none;stroke-dashoffset:0;stroke-opacity:1"
       d="m 72,4.00025 a 7,6 0 0 0 -7,6 7,6 0 0 0 1.939453,4.140625 L 65.5,17.469 73.189453,15.912359 a 7,6 0 0 0 0.04102,-0.0078 A 7,6 0 0 0 79,10.00025 a 7,6 0 0 0 -7,-6 z m 2.449219,2.9999996 a 0.75,0.96875 0 0 1 0.75,0.96875 0.75,0.96875 0 0 1 -0.75,0.96875 0.75,0.96875 0 0 1 -0.75,-0.96875 0.75,0.96875 0 0 1 0.75,-0.96875 z m -5,0.03125 a 0.75,0.96875 0 0 1 0.75,0.96875 0.75,0.96875 0 0 1 -0.75,0.96875 0.75,0.96875 0 0 1 -0.75,-0.96875 0.75,0.96875 0 0 1 0.75,-0.96875 z M 68,11.00025 a 5.0321543,2.5593277 0 0 0 3.974609,0.992188 5.0321543,2.5593277 0 0 0 3.972657,-0.992188 3.9761278,3.0610538 0 0 1 -3.972657,3 3.9761278,3.0610538 0 0 1 -3.974609,-3 z"
       id="path4171-9-6"
       inkscape:connector-curvature="0" />
    <path
       style="display:inline;opacity:1;fill:#5294e2;fill-opacity:1;stroke:none;stroke-width:1;stroke-linecap:butt;stroke-linejoin:miter;stroke-miterlimit:4;stroke-dasharray:none;stroke-dashoffset:0;stroke-opacity:1"
       d="m 88,4.00025 a 7,6 0 0 0 -7,6 7,6 0 0 0 1.939453,4.140625 L 81.5,17.469 89.18945,15.912359 a 7,6 0 0 0 0.041,-0.0078 A 7,6 0 0 0 95,10.00025 a 7,6 0 0 0 -7,-6 z m 2.44922,2.9999996 a 0.75,0.96875 0 0 1 0.75,0.96875 0.75,0.96875 0 0 1 -0.75,0.96875 0.75,0.96875 0 0 1 -0.75,-0.96875 0.75,0.96875 0 0 1 0.75,-0.96875 z m -5.000001,0.03125 a 0.75,0.96875 0 0 1 0.75,0.96875 0.75,0.96875 0 0 1 -0.75,0.96875 0.75,0.96875 0 0 1 -0.75,-0.96875 0.75,0.96875 0 0 1 0.75,-0.96875 z M 84,11.00025 a 5.0321543,2.5593277 0 0 0 3.974609,0.992188 5.0321543,2.5593277 0 0 0 3.972661,-0.992188 3.9761278,3.0610538 0 0 1 -3.972661,3 3.9761278,3.0610538 0 0 1 -3.974609,-3 z"
       id="path4171-9-8"
       inkscape:connector-curvature="0" />
    <path
       style="display:inline;opacity:1;fill:#74a9e8;fill-opacity:1;stroke:none;stroke-width:1;stroke-linecap:butt;stroke-linejoin:miter;stroke-miterlimit:4;stroke-dasharray:none;stroke-dashoffset:0;stroke-opacity:1"
       d="m 104,4.00025 a 7,6 0 0 0 -7,6 7,6 0 0 0 1.93945,4.140625 L 97.5,17.469 l 7.68945,-1.556641 a 7,6 0 0 0 0.041,-0.0078 A 7,6 0 0 0 111,10.00025 a 7,6 0 0 0 -7,-6 z m 2.44922,2.9999996 a 0.75,0.96875 0 0 1 0.75,0.96875 0.75,0.96875 0 0 1 -0.75,0.96875 0.75,0.96875 0 0 1 -0.75,-0.96875 0.75,0.96875 0 0 1 0.75,-0.96875 z m -5,0.03125 a 0.75,0.96875 0 0 1 0.75,0.96875 0.75,0.96875 0 0 1 -0.75,0.96875 0.75,0.96875 0 0 1 -0.75,-0.96875 0.75,0.96875 0 0 1 0.75,-0.96875 z M 100,11.00025 a 5.0321543,2.5593277 0 0 0 3.97461,0.992188 5.0321543,2.5593277 0 0 0 3.97266,-0.992188 3.9761278,3.0610538 0 0 1 -3.97266,3 3.9761278,3.0610538 0 0 1 -3.97461,-3 z"
       id="path4171-9-2"
       inkscape:connector-curvature="0" />
  </g>
</svg>
