<?xml version="1.0" encoding="UTF-8" standalone="no"?>
<!-- This Source Code Form is subject to the terms of the Mozilla Public
   - License, v. 2.0. If a copy of the MPL was not distributed with this
   - file, You can obtain one at http://mozilla.org/MPL/2.0/. -->

<svg
   xmlns:dc="http://purl.org/dc/elements/1.1/"
   xmlns:cc="http://creativecommons.org/ns#"
   xmlns:rdf="http://www.w3.org/1999/02/22-rdf-syntax-ns#"
   xmlns:svg="http://www.w3.org/2000/svg"
   xmlns="http://www.w3.org/2000/svg"
   xmlns:sodipodi="http://sodipodi.sourceforge.net/DTD/sodipodi-0.dtd"
   xmlns:inkscape="http://www.inkscape.org/namespaces/inkscape"
   width="16"
   height="16"
   viewBox="0 0 16 16"
   id="svg2"
   version="1.1"
   inkscape:version="0.91 r13725"
   sodipodi:docname="tab-audio-small.svg">
  <metadata
     id="metadata30">
    <rdf:RDF>
      <cc:Work
         rdf:about="">
        <dc:format>image/svg+xml</dc:format>
        <dc:type
           rdf:resource="http://purl.org/dc/dcmitype/StillImage" />
        <dc:title />
      </cc:Work>
    </rdf:RDF>
  </metadata>
  <defs
     id="defs28" />
  <sodipodi:namedview
     pagecolor="#b1b1b1"
     bordercolor="#666666"
     borderopacity="1"
     objecttolerance="10"
     gridtolerance="10"
     guidetolerance="10"
     inkscape:pageopacity="0"
     inkscape:pageshadow="2"
     inkscape:window-width="640"
     inkscape:window-height="480"
     id="namedview26"
     showgrid="false"
     inkscape:zoom="12.46875"
     inkscape:cx="-0.22891557"
     inkscape:cy="5.5804938"
     inkscape:current-layer="svg2" />
  <style
     id="style4">
    .icon:not(:target) {
      display: none;
    }

    .icon {
      fill: #262626;
    }
    .icon &gt; .outline {
      fill: #fff;
    }

    .icon.white {
      fill: #fff;
    }
    .icon.white &gt; .outline {
      fill: #000;
      fill-opacity: .5;
    }
  </style>
  <g
     id="tab-audio"
     class="icon">
    <path
       class="outline"
       d="M12.4,3.6l-1-0.6l-0.9,2.5H10V1.8c0-0.4-0.5-0.7-0.9-0.4L5.6,5H4C2.9,5,2,5.9,2,7v2c0,1.1,0.9,2,2,2h1.6l3.6,3.6 c0.3,0.3,0.9,0.1,0.9-0.4v-3.7h0.5l0.9,2.5l1-0.6C14,11.5,15,9.8,15,8S14,4.5,12.4,3.6z M9,13l-3-3H4c-0.6,0-1-0.4-1-1V7 c0-0.6,0.4-1,1-1h2l3-3V13z M10,9.5v-3c0.8,0,1.5,0.7,1.5,1.5S10.8,9.5,10,9.5z M11.9,11.5l-0.4-0.9C12.4,10,13,9.1,13,8 s-0.6-2-1.4-2.5l0.3-1C13.2,5.2,14,6.5,14,8S13.2,10.8,11.9,11.5z"
       id="path7"
       style="fill:#2f343f;fill-opacity:1" />
    <path
       d="M4,6C3.4,6,3,6.4,3,7v2c0,0.6,0.4,1,1,1h2l3,3V3L6,6H4z M10,6.5v3c0.8,0,1.5-0.7,1.5-1.5S10.8,6.5,10,6.5z M11.9,4.5 l-0.4,0.9C12.4,6,13,6.9,13,8s-0.6,2-1.4,2.5l0.4,0.9c1.2-0.7,2.1-2,2.1-3.5S13.2,5.2,11.9,4.5z"
       id="path9"
       style="fill:#d3dae3;fill-opacity:1" />
  </g>
  <g
     id="tab-audio-muted"
     class="icon">
    <path
       class="outline"
       d="M5.6,5H4C2.9,5,2,5.9,2,7v2c0,0.7,0.3,1.3,0.9,1.7l-1.8,1.8l2.5,2.5l3-3l2.6,2.6c0.3,0.3,0.9,0.1,0.9-0.4V8.5l3.9-3.9 l-2.5-2.5L10,3.5V1.8c0-0.4-0.5-0.7-0.9-0.4L5.6,5z"
       id="path12"
       style="fill:#2f343f;fill-opacity:1" />
    <path
       d="M11.5,3.5L9,5.9V3L6,6H4C3.4,6,3,6.4,3,7v2c0,0.6,0.4,1,1,1h0.9l-2.5,2.5l1.1,1.1l9-9L11.5,3.5z M9,13V9.7l-1.7,1.7L9,13z"
       id="path14"
       style="fill:#d3dae3;fill-opacity:1" />
  </g>
</svg>
